<?xml version="1.0" encoding="utf-8"?>
<!-- Generator: Adobe Illustrator 27.5.0, SVG Export Plug-In . SVG Version: 6.00 Build 0)  -->
<svg version="1.1" xmlns="http://www.w3.org/2000/svg" xmlns:xlink="http://www.w3.org/1999/xlink" x="0px" y="0px"
	 viewBox="0 0 750 500" style="enable-background:new 0 0 750 500;" xml:space="preserve">
<g id="BACKGROUND">
	<g>
		<defs>
			<rect id="SVGID_1_" width="750" height="500"/>
		</defs>
		<clipPath id="SVGID_00000057846208592866918880000018337270080125563799_">
			<use xlink:href="#SVGID_1_"  style="overflow:visible;"/>
		</clipPath>
		
			<rect x="-1.782" y="0.16" style="clip-path:url(#SVGID_00000057846208592866918880000018337270080125563799_);fill:#5660BB;" width="754.958" height="270.196"/>
		<path style="clip-path:url(#SVGID_00000057846208592866918880000018337270080125563799_);fill:#363F59;" d="M-29.185,152.152
			c0,0,138.528,70.418,408.825,63.928c233.131-9.869,379.542-47.035,379.542-47.035l-7.884,168.936H-2.156L-29.185,152.152z"/>
		<g style="clip-path:url(#SVGID_00000057846208592866918880000018337270080125563799_);">
			<g>
				<polygon style="fill:#BEC9D8;" points="107.024,172.358 104.903,170.237 212.871,60.843 119.275,21 11.358,141.881 
					9.108,139.897 118.471,17.375 218.102,59.855 				"/>
				<polygon style="fill:#363F59;" points="36.137,107.102 132.993,147.647 220.84,59.8 118.352,15.877 				"/>
				<ellipse style="fill:#BEC9D8;" cx="129.051" cy="38.401" rx="10.699" ry="9.573"/>
				<ellipse style="fill:#BEC9D8;" cx="162.838" cy="53.043" rx="10.699" ry="9.573"/>
				<ellipse style="fill:#BEC9D8;" cx="196.626" cy="67.684" rx="10.699" ry="9.573"/>
				<ellipse style="fill:#BEC9D8;" cx="103.711" cy="65.994" rx="10.699" ry="9.573"/>
				<ellipse style="fill:#BEC9D8;" cx="137.498" cy="80.635" rx="10.699" ry="9.573"/>
				<ellipse style="fill:#BEC9D8;" cx="171.285" cy="95.276" rx="10.699" ry="9.573"/>
				<ellipse style="fill:#BEC9D8;" cx="76.681" cy="95.276" rx="10.699" ry="9.573"/>
				<ellipse style="fill:#BEC9D8;" cx="110.468" cy="109.918" rx="10.699" ry="9.573"/>
				<ellipse style="fill:#BEC9D8;" cx="144.255" cy="124.559" rx="10.699" ry="9.573"/>
			</g>
			<g>
				<polygon style="fill:#BEC9D8;" points="639.866,172.358 641.987,170.237 533.331,61.688 627.772,20.155 735.532,141.881 
					737.782,139.897 628.576,16.53 528.1,60.7 				"/>
				<polygon style="fill:#363F59;" points="710.753,107.102 613.897,147.647 526.05,59.8 628.538,15.877 				"/>
				<ellipse style="fill:#BEC9D8;" cx="617.839" cy="38.401" rx="10.699" ry="9.573"/>
				<ellipse style="fill:#BEC9D8;" cx="584.052" cy="53.043" rx="10.699" ry="9.573"/>
				<ellipse style="fill:#BEC9D8;" cx="550.264" cy="67.684" rx="10.699" ry="9.573"/>
				<ellipse style="fill:#BEC9D8;" cx="643.179" cy="65.994" rx="10.699" ry="9.573"/>
				<ellipse style="fill:#BEC9D8;" cx="609.392" cy="80.635" rx="10.699" ry="9.573"/>
				<ellipse style="fill:#BEC9D8;" cx="575.605" cy="95.276" rx="10.699" ry="9.573"/>
				<ellipse style="fill:#BEC9D8;" cx="670.209" cy="95.276" rx="10.699" ry="9.573"/>
				<ellipse style="fill:#BEC9D8;" cx="636.422" cy="109.918" rx="10.699" ry="9.573"/>
				<ellipse style="fill:#BEC9D8;" cx="602.635" cy="124.559" rx="10.699" ry="9.573"/>
			</g>
		</g>
		<g style="clip-path:url(#SVGID_00000057846208592866918880000018337270080125563799_);">
			<rect x="-2.156" y="337.981" style="fill:#33664F;" width="753.454" height="163.305"/>
			<g>
				<rect x="370.748" y="335.728" style="fill:#BEC9D8;" width="8.772" height="164.431"/>
				<polygon style="fill:#BEC9D8;" points="274.78,500.159 266.008,500.159 328.07,335.728 336.842,335.728 				"/>
				<polygon style="fill:#BEC9D8;" points="150.894,500.159 142.122,500.159 260.495,335.728 269.268,335.728 				"/>
				<polygon style="fill:#BEC9D8;" points="8.988,500.159 0.216,500.159 199.679,335.728 208.451,335.728 				"/>
				<polygon style="fill:#BEC9D8;" points="-93.619,482.139 -102.391,482.139 145.619,335.728 154.391,335.728 				"/>
				<polygon style="fill:#BEC9D8;" points="-29.423,383.03 -38.195,383.03 82.55,335.728 91.322,335.728 				"/>
				<polygon style="fill:#BEC9D8;" points="469.857,500.159 478.629,500.159 416.568,335.728 407.795,335.728 				"/>
				<polygon style="fill:#BEC9D8;" points="593.743,500.159 602.516,500.159 484.142,335.728 475.37,335.728 				"/>
				<polygon style="fill:#BEC9D8;" points="735.649,500.159 744.422,500.159 544.959,335.728 536.186,335.728 				"/>
				<polygon style="fill:#BEC9D8;" points="838.256,482.139 847.028,482.139 599.018,335.728 590.246,335.728 				"/>
				<polygon style="fill:#BEC9D8;" points="774.06,383.03 782.833,383.03 662.088,335.728 653.315,335.728 				"/>
				<g>
					<rect x="-16.797" y="405.808" style="fill:#BEC9D8;" width="6" height="4"/>
					<path style="fill:#BEC9D8;" d="M738.838,409.808h-12.091v-4h12.091V409.808z M714.656,409.808h-12.091v-4h12.091V409.808z
						 M690.475,409.808h-12.091v-4h12.091V409.808z M666.293,409.808h-12.092v-4h12.092V409.808z M642.11,409.808h-12.091v-4h12.091
						V409.808z M617.929,409.808h-12.091v-4h12.091V409.808z M593.747,409.808h-12.091v-4h12.091V409.808z M569.565,409.808h-12.091
						v-4h12.091V409.808z M545.384,409.808h-12.091v-4h12.091V409.808z M521.202,409.808h-12.091v-4h12.091V409.808z
						 M497.02,409.808H484.93v-4h12.091V409.808z M472.839,409.808h-12.091v-4h12.091V409.808z M448.656,409.808h-12.091v-4h12.091
						V409.808z M424.475,409.808h-12.091v-4h12.091V409.808z M400.293,409.808h-12.091v-4h12.091V409.808z M376.111,409.808h-12.091
						v-4h12.091V409.808z M351.93,409.808h-12.091v-4h12.091V409.808z M327.748,409.808h-12.091v-4h12.091V409.808z
						 M303.566,409.808h-12.091v-4h12.091V409.808z M279.384,409.808h-12.091v-4h12.091V409.808z M255.203,409.808h-12.091v-4
						h12.091V409.808z M231.021,409.808H218.93v-4h12.091V409.808z M206.839,409.808h-12.091v-4h12.091V409.808z M182.657,409.808
						h-12.091v-4h12.091V409.808z M158.476,409.808h-12.091v-4h12.091V409.808z M134.294,409.808h-12.091v-4h12.091V409.808z
						 M110.112,409.808H98.021v-4h12.091V409.808z M85.93,409.808H73.839v-4H85.93V409.808z M61.749,409.808H49.658v-4h12.091
						V409.808z M37.566,409.808H25.476v-4h12.091V409.808z M13.385,409.808H1.294v-4h12.091V409.808z"/>
					<rect x="750.93" y="405.808" style="fill:#BEC9D8;" width="6" height="4"/>
				</g>
			</g>
		</g>
		<g style="clip-path:url(#SVGID_00000057846208592866918880000018337270080125563799_);">
			<circle style="fill:#BEC9D8;" cx="374.008" cy="171.298" r="7.884"/>
			<g>
				
					<ellipse transform="matrix(0.1606 -0.987 0.987 0.1606 192.3121 566.4701)" style="fill:#BEC9D8;" cx="429.194" cy="170.171" rx="7.884" ry="7.884"/>
				
					<ellipse transform="matrix(0.9231 -0.3845 0.3845 0.9231 -27.7602 199.2555)" style="fill:#BEC9D8;" cx="484.379" cy="169.045" rx="7.884" ry="7.884"/>
				<circle style="fill:#BEC9D8;" cx="538.439" cy="164.54" r="7.884"/>
				
					<ellipse transform="matrix(0.9231 -0.3845 0.3845 0.9231 -15.1165 239.9644)" style="fill:#BEC9D8;" cx="592.498" cy="157.783" rx="7.884" ry="7.884"/>
				
					<ellipse transform="matrix(0.2305 -0.9731 0.9731 0.2305 351.6442 744.4852)" style="fill:#BEC9D8;" cx="646.558" cy="149.899" rx="7.884" ry="7.884"/>
				
					<ellipse transform="matrix(0.1606 -0.987 0.987 0.1606 446.716 800.2854)" style="fill:#BEC9D8;" cx="693.86" cy="137.51" rx="7.884" ry="7.884"/>
				
					<ellipse transform="matrix(0.2305 -0.9731 0.9731 0.2305 456.3988 818.393)" style="fill:#BEC9D8;" cx="745.667" cy="120.617" rx="7.884" ry="7.884"/>
			</g>
			<g>
				
					<ellipse transform="matrix(0.987 -0.1606 0.1606 0.987 -23.1883 53.4037)" style="fill:#BEC9D8;" cx="318.822" cy="170.171" rx="7.884" ry="7.884"/>
				
					<ellipse transform="matrix(0.3952 -0.9186 0.9186 0.3952 4.1584 344.4065)" style="fill:#BEC9D8;" cx="263.637" cy="169.045" rx="7.884" ry="7.884"/>
				<circle style="fill:#BEC9D8;" cx="209.577" cy="164.54" r="7.884"/>
				
					<ellipse transform="matrix(0.9732 -0.2298 0.2298 0.9732 -32.0906 39.9513)" style="fill:#BEC9D8;" cx="155.518" cy="157.783" rx="7.884" ry="7.884"/>
				
					<ellipse transform="matrix(0.9871 -0.1602 0.1602 0.9871 -22.7011 18.1875)" style="fill:#BEC9D8;" cx="101.458" cy="149.899" rx="7.884" ry="7.884"/>
				
					<ellipse transform="matrix(0.9871 -0.1602 0.1602 0.9871 -21.3275 10.4505)" style="fill:#BEC9D8;" cx="54.156" cy="137.51" rx="7.884" ry="7.884"/>
				
					<ellipse transform="matrix(0.9871 -0.1602 0.1602 0.9871 -19.2904 1.9338)" style="fill:#BEC9D8;" cx="2.349" cy="120.617" rx="7.884" ry="7.884"/>
			</g>
		</g>
		<g style="clip-path:url(#SVGID_00000057846208592866918880000018337270080125563799_);">
			<path style="fill:#70878A;" d="M379.64,278.033c-231.111,0-382.71-30.233-384.214-30.539l2.585-12.74
				c1.493,0.303,151.932,30.279,381.629,30.279c229.631,0,371.137-29.96,372.539-30.262l2.744,12.707
				C753.509,247.784,610.791,278.033,379.64,278.033z"/>
			<path style="fill:#70878A;" d="M379.64,223.974c-210.224,0-383.008-49.313-384.729-49.811l3.614-12.487
				c1.704,0.493,172.819,49.298,381.115,49.298c204.964,0,370.479-46.582,372.126-47.052l3.571,12.5
				C753.672,176.897,586.511,223.974,379.64,223.974z"/>
			<path style="fill:#BEC9D8;" d="M379.64,216.08c-74.614,0-185.919-4.848-292.446-27.945
				c-64.429-13.969-96.526-27.972-97.861-28.561l12.5-28.368c0.308,0.135,31.445,13.617,93.297,26.929
				c57.118,12.293,152.842,26.945,284.511,26.945c72.661,0,180.612-4.48,282.258-25.827c60.749-12.758,90.776-25.678,91.072-25.807
				l12.445,28.392c-1.29,0.566-32.316,14.029-95.656,27.439C612.005,201.504,514.79,216.08,379.64,216.08z"/>
			<rect x="-2.156" y="326.868" style="fill:#70878A;" width="753.454" height="11.113"/>
		</g>
	</g>
</g>
<g id="OBJECTS">
	<g>
		<defs>
			<rect id="SVGID_00000036972308975873918780000008832961307714041274_" x="112.721" y="23.76" width="584.518" height="476.399"/>
		</defs>
		<clipPath id="SVGID_00000181779406177678814620000015526010657368457873_">
			<use xlink:href="#SVGID_00000036972308975873918780000008832961307714041274_"  style="overflow:visible;"/>
		</clipPath>
		<g style="clip-path:url(#SVGID_00000181779406177678814620000015526010657368457873_);">
			<g>
				<path style="fill:#B58361;" d="M595.25,260.271l41.108,43.36l-46.176,39.418l5.631,19.146c0,0,80.4-33.371,93.478-44.487
					c11.262-9.573-55.186-92.351-55.186-92.351L595.25,260.271z"/>
				<path style="fill:#936444;" d="M634.105,225.357L595.25,260.27l21.424,22.598c0.982-1.49,1.972-2.975,2.986-4.444
					c8.51-12.336,18.245-23.822,28.999-34.259C640.338,233.123,634.105,225.357,634.105,225.357z"/>
			</g>
			<g>
				<path style="fill:#BEC9D8;" d="M458.975,319.398c0,0-14.641,44.486-23.088,82.779c-8.447,38.292-8.447,110.934-8.447,110.934
					h72.079l19.146-96.857l16.894,100.235h72.079c0,0,1.689-92.915-5.631-128.391c-7.321-35.477-22.525-68.138-22.525-68.138
					L458.975,319.398z"/>
				<g>
					<path style="fill:#94A0AF;" d="M494.587,319.564l-35.612-0.166c0,0-14.641,44.486-23.088,82.779
						c-8.447,38.292-8.447,110.935-8.447,110.935h24.647c1.003-14.558,7.076-96.924,20.121-159.081
						c7.602-6.757,109.527-27.874,109.527-27.874L494.587,319.564z"/>
					<path style="fill:#94A0AF;" d="M535.559,377.681c-1.689,10.981-16.894,38.574-16.894,38.574l16.894,100.235h25.956
						C559.693,505.332,547.266,429.972,535.559,377.681z"/>
				</g>
			</g>
			<g>
				<polygon style="fill:#B58361;" points="504.963,129.627 495.953,177.68 490.697,208.088 543.631,206.211 523.358,128.501 				
					"/>
				<path style="fill:#936444;" d="M500.088,155.626c0.764,0.554,1.539,1.092,2.341,1.593c5.246,3.284,11.538,5.3,17.646,4.306
					c3.923-0.639,7.527-2.499,10.573-5.075l-6.312-24.197l-19.842-0.13L500.088,155.626z"/>
			</g>
			<g>
				<path style="fill:#B58361;" d="M396.469,230.988c0,0-41.671,66.448-44.486,70.953c-2.816,4.505-10.136,18.02-1.689,23.651
					c8.447,5.631,94.604,38.855,94.604,38.855l6.194-21.962l-47.865-38.855l36.603-34.35L396.469,230.988z"/>
				<path style="fill:#936444;" d="M389.213,242.559c9.702,15.94,18.614,32.359,26.678,49.187l23.938-22.465l-42.496-37.529
					l-0.941-0.641C395.927,231.852,393.163,236.259,389.213,242.559z"/>
			</g>
			<g>
				<ellipse style="fill:#B58361;" cx="514.161" cy="118.74" rx="20.085" ry="23.276"/>
				<path style="fill:#363F59;" d="M539.499,106.659c-0.049-1.225-1.166-19.504-24.024-20.955
					c-15.027-0.954-22.015,7.787-25.119,14.291l-0.034-0.026c0,0-4.88,5.631-3.003,21.399c1.877,15.767,6.007,18.02,6.007,18.02
					h6.007c-1.126-5.256-2.628-9.385-3.003-21.398c-0.013-0.42,0.375-7.508,1.572-11.261c13.069-0.001,22.435,0.391,32.59,0.374
					c1.606,5.633,1.851,8.079,1.502,12.389c-1.126,13.89-4.856,19.897-4.184,19.897h6.007c0,0,4.13-2.253,6.007-18.02
					C540.601,114.825,540.215,110.033,539.499,106.659z"/>
				<path style="fill:#FFFFFF;" d="M544.004,114.578v-10.39l-0.488-0.446c-0.466-0.425-5.254-4.14-29.94-3.771
					c-24.86,0.371-29.605,2.946-30.065,3.238l-0.694,0.442v10.228c-0.024,0.316-0.023,0.671,0,1.051v0.95l0.11-0.033
					c0.195,1.117,0.653,2.292,1.533,3.202c-0.216,0.47-0.328,1.008-0.244,1.586l-0.213-0.062c-0.147,0.506-3.52,12.487,3.277,20.884
					l0.29,0.358l0.441,0.134c4.793,1.452,12.306,2.085,20.248,2.085c12.586-0.001,26.245-1.589,31.841-4.022l0.604-0.262
					l0.216-0.622c0.154-0.446,3.676-10.808,0.427-18.033c0.908-1.014,1.654-2.237,2.193-3.72l-0.411-0.15
					c0.309-0.74,0.54-1.634,0.693-2.686L544.004,114.578z M539.713,128.011c-23.814,5.631-47.173,1.809-53.65,0.531
					c-0.033-2.106,0.193-3.968,0.418-5.26c2.015,0.96,5.831,1.694,13.197,1.838c2.775,0.055,5.386,0.078,7.833,0.078
					c10.403,0,17.842-0.422,22.223-0.67c1.621-0.092,2.792-0.158,3.386-0.158c2.258,0,4.174-0.466,5.782-1.34
					C539.464,124.576,539.686,126.298,539.713,128.011z M498.63,120.65c12.474,0,30.808-0.482,39.624-0.737
					c-1.288,0.979-2.96,1.457-5.135,1.457c-0.679,0-1.823,0.065-3.556,0.163c-5.372,0.305-15.372,0.872-29.827,0.588
					c-8.91-0.175-11.555-1.255-12.306-1.751C489.551,120.571,493.615,120.65,498.63,120.65z M539.858,116.864l-0.025,0
					c-19.042,0.565-50.197,1.19-52.674,0.496c-0.935-0.401-1.232-1.531-1.322-2.37c3.306-0.891,13.8-3.458,25.921-3.761
					c11.914-0.299,25.008,1.944,29.123,2.716C540.583,116.164,540.002,116.752,539.858,116.864z M485.816,105.479
					c2.015-0.66,8.748-2.224,27.805-2.508c19.183-0.286,25.707,1.95,27.384,2.727v5.219c-4.659-0.857-17.542-2.982-29.32-2.687
					c-11.748,0.294-21.787,2.59-25.868,3.657V105.479z M489.328,139.209c-1.758-2.325-2.632-5.003-3.015-7.566
					c4.511,0.846,14.235,2.354,26.22,2.354c8.263,0,17.6-0.737,27.036-2.883c-0.297,2.828-0.954,5.287-1.287,6.399
					C529.127,140.999,501.009,142.493,489.328,139.209z"/>
			</g>
			<g>
				<g>
					<polygon style="fill:#363F59;" points="425.751,359.379 437.576,328.408 452.499,339.67 444.615,367.826 					"/>
					<path style="fill:#363F59;" d="M444.158,357.647c-0.157,0.578-0.269,1.303,0.194,1.684c0.331,0.272,0.811,0.231,1.236,0.176
						c2.506-0.326,5.012-0.653,7.518-0.979c0.668-0.087,1.541-0.43,1.426-1.094c-0.046-0.267-0.255-0.471-0.458-0.65
						c-1.279-1.132-2.755-2.041-4.342-2.674c2.939-0.057,5.879-0.115,8.818-0.172c-1.418-2.269-3.867-3.865-6.515-4.246
						c3.024-0.855,6.208-1.138,9.336-0.831c-2.174-2.008-4.894-3.42-7.788-4.042c1.984-2.702,5.133-4.517,8.466-4.878
						c-0.328-1.357-1.711-2.161-3.014-2.663c-5.71-2.2-7.529-1.457-9.606,4.062C447.417,346.688,445.655,352.131,444.158,357.647z"
						/>
				</g>
				<g>
					<polygon style="fill:#363F59;" points="614.396,357.69 603.134,330.097 589.033,339.67 596.376,365.574 					"/>
					<path style="fill:#363F59;" d="M597.374,357.647c0.157,0.578,0.269,1.303-0.194,1.684c-0.331,0.272-0.811,0.231-1.236,0.176
						c-2.506-0.326-5.012-0.653-7.518-0.979c-0.668-0.087-1.541-0.43-1.426-1.094c0.046-0.267,0.255-0.471,0.458-0.65
						c1.279-1.132,2.755-2.041,4.342-2.674c-2.939-0.057-5.879-0.115-8.818-0.172c1.418-2.269,3.867-3.865,6.515-4.246
						c-3.024-0.855-6.208-1.138-9.336-0.831c2.174-2.008,4.894-3.42,7.788-4.042c-1.984-2.702-5.133-4.517-8.466-4.878
						c0.328-1.357,1.711-2.161,3.014-2.663c5.71-2.2,7.529-1.457,9.606,4.062C594.116,346.688,595.878,352.131,597.374,357.647z"/>
				</g>
			</g>
			<g>
				<path style="fill:#A85164;" d="M495.015,170.734l23.651,36.04l17.457-37.166l28.156-3.942c0,0,18.02-10.699,38.855-3.379
					c20.835,7.321,18.02,34.913,18.02,34.913s14.641,23.088,17.457,32.098c-29.845,27.593-42.234,34.913-42.234,34.913l-8.447-7.32
					c0,0-1.689,12.389-3.942,19.709c-0.563,28.156-2.253,49.555-2.253,49.555H456.159l-1.689-43.923c0,0-3.942-15.204-4.505-21.962
					c-6.757,6.194-10.136,9.01-10.136,9.01s-45.613-30.972-48.991-34.913c5.068-19.146,16.894-31.535,16.894-31.535
					c-4.505-18.583,14.641-52.37,56.312-34.913L495.015,170.734z"/>
				<g>
					<path style="fill:#6B3A64;" d="M417.269,253.767c11.583,8.059,22.56,15.513,22.56,15.513s3.379-2.816,10.136-9.01
						c0,0,1.126-34.913,6.757-52.37C434.627,232.992,422.752,247.115,417.269,253.767z"/>
					<path style="fill:#6B3A64;" d="M596.376,264.212c0,0,5.316-3.142,17.368-13.061c-3.206-5.17-11.303-17.865-28.63-43.251
						c5.068,19.709,2.816,48.991,2.816,48.991L596.376,264.212z"/>
					<path style="fill:#6B3A64;" d="M520.918,321.65c-25.205-1.163-51.477-7.934-65.395-12.037l0.636,16.543h125.576
						c0,0,0.591-7.484,1.19-19.419C573.315,311.882,549.132,322.953,520.918,321.65z"/>
				</g>
				<g>
					<path style="fill:#FFFFFF;" d="M471.364,256.598l0.48,40.061l10.578,6.409h27.836l0.557-17.09l-26.723,0.534v-20.828
						l3.34-3.738l22.826-1.068c0,0,0,0,2.784-3.738c-2.227-3.738,1.67-30.975,1.67-30.975l-6.681-5.875h-26.166l-9.464,1.068v12.817
						l24.496-1.068l0.557,16.556l-20.625,0.421L471.364,256.598z"/>
					<path style="fill:#FFFFFF;" d="M519.242,256.598l0.48,40.061l10.578,6.409h27.836l0.557-17.09l-26.723,0.534v-20.828
						l3.34-3.738l22.826-1.068c0,0,0,0,2.784-3.738c-2.227-3.738,1.67-30.975,1.67-30.975l-6.681-5.875h-26.166l-9.464,1.068v12.817
						l24.496-1.068l0.557,16.556l-20.625,0.421L519.242,256.598z"/>
				</g>
			</g>
		</g>
		<g style="clip-path:url(#SVGID_00000181779406177678814620000015526010657368457873_);">
			<g>
				<path style="fill:#363F59;" d="M133.622,465.449c1.219-1.677,4.139-0.31,6.207-0.175c1.864,10.148,2.207,20.574,1.014,30.822
					c-2.062-3.571-3.284-7.623-3.542-11.738c-1.268,4.642-3.232,9.094-5.806,13.16c-1.087-4.816-0.6-9.974,1.37-14.5
					c-2.906,4.932-5.813,9.864-8.719,14.796c-0.068-6.493,0.948-12.995,2.994-19.158
					C127.14,478.655,130.199,470.158,133.622,465.449z"/>
				<g>
					<path style="fill:#EFB993;" d="M175.336,327.563l-1.689-106.43l54.904,2.534c0,0,15.204,63.351-10.981,157.11
						c-11.834,19.408-31.89,45.445-47.237,64.588l-32.58-16.998C153.477,385.49,175.336,327.563,175.336,327.563z"/>
				</g>
				<g>
					<path style="fill:#C48C66;" d="M173.647,221.134l51.807,6.851l3.838,96.77c-0.567,4.083-1.213,8.269-1.943,12.548
						c-12.037-27.312-31.56-50.613-52.999-71.866L173.647,221.134z"/>
					<path style="fill:#C48C66;" d="M163.444,436.918c15.847-22.846,31.695-45.691,47.542-68.537l7.895,7.592
						c-0.426,1.593-0.861,3.193-1.311,4.805c-11.834,19.407-31.89,45.445-47.237,64.588l-9.398-4.799
						C161.768,439.341,162.607,438.124,163.444,436.918z"/>
					<path style="fill:#C48C66;" d="M149.146,471.267c0-0.004,0-0.008,0.001-0.012C149.146,471.26,149.146,471.261,149.146,471.267z
						"/>
					<path style="fill:#A85164;" d="M149.146,471.255c0.003-0.059,0.005-0.096,0.005-0.096S149.149,471.198,149.146,471.255z"/>
				</g>
			</g>
			<path style="fill:#A85164;" d="M145.773,488.897c-2.534,0-11.826-20.272-11.826-20.272l-15.204,27.03
				c0,0,0.845-11.826,3.379-22.806c0.87-3.769,6.141-22.357,14.36-44.768l35.289,18.02c-13.139,15.392-22.619,25.059-22.619,25.059
				S148.307,488.897,145.773,488.897z"/>
			<g>
				<g>
					<path style="fill:#BEC9D8;" d="M246.858,501.849H192.23c0,0,2.295-105.866,17.787-166.12l134.838,1.126
						c0,0,10.902,21.398,19.508,65.322c8.607,43.923,9.754,98.546,9.754,98.546h-87.788l-9.18-46.176
						c0,0-17.908-44.486-24.102-70.953C247.455,455.774,246.911,494.913,246.858,501.849z"/>
					<path style="fill:#94A0AF;" d="M246.858,501.849c0.053-6.936,0.597-46.074,6.189-118.255
						c6.194,26.467,24.102,70.953,24.102,70.953l1.721,47.302H246.858z"/>
				</g>
				<path style="fill:#94A0AF;" d="M267.314,336.207l77.541,0.648c0,0,10.902,21.398,19.508,65.322
					c8.607,43.923,9.754,98.546,9.754,98.546h-31.327c-2.198-25.584-4.731-51.14-7.613-76.656
					c-1.743-15.431-3.632-30.951-8.267-45.772c-0.749-2.393-1.622-4.854-3.396-6.627c-1.717-1.717-4.083-2.592-6.388-3.359
					c-8.391-2.792-17.017-4.803-25.629-6.809c-27.527-6.415-55.055-12.829-82.582-19.244L267.314,336.207z"/>
			</g>
			<g>
				<path style="fill:#EFB993;" d="M268.251,107.665l32.942,49.273c0,0,1.689,7.884-4.223,17.738
					c-5.913,9.855-49.836,27.03-49.836,27.03s2.534-92.07,3.379-92.07C251.357,109.636,268.251,107.665,268.251,107.665z"/>
				<path style="fill:#C48C66;" d="M250.513,109.636c0.845,0,17.738-1.971,17.738-1.971l9.759,14.596
					c-0.458,0.788-0.937,1.566-1.446,2.325c-3.79,5.658-9.066,10.427-15.371,13.001c-3.197,1.306-6.737,2.039-10.122,1.351
					c-0.676-0.137-1.338-0.357-1.983-0.618C249.652,122.347,250.199,109.636,250.513,109.636z"/>
			</g>
			<g>
				<polygon style="fill:#363F59;" points="231.648,73.596 227.143,109.636 242.066,109.354 245.726,72.47 				"/>
				
					<ellipse transform="matrix(0.1155 -0.9933 0.9933 0.1155 139.1309 331.3059)" style="fill:#EFB993;" cx="255.587" cy="87.534" rx="27.162" ry="22.994"/>
				<g>
					<g>
						<path style="fill:#A85164;" d="M272.193,77.538l-43.36-1.126c0,0,4.786-21.399,30.408-21.68
							c25.622-0.282,34.35,24.496,25.904,45.894c-5.631,11.826-4.786,10.136-4.786,10.136l-16.33,0.282L272.193,77.538z"/>
						<path style="fill:#FFFFFF;" d="M260.789,54.762c5.119,0.151,9.527,1.328,13.218,3.297
							c-17.217,1.841-23.42,12.813-25.545,18.862l-8.363-0.217C243.77,63.153,253.947,57.249,260.789,54.762z"/>
					</g>
					<g>
						<path style="fill:#FFFFFF;" d="M225.55,99.932c-3.093-0.036-5.551-2.49-5.595-5.588l-0.163-11.59
							c-0.021-1.56,0.578-3.022,1.689-4.117c1.112-1.095,2.601-1.673,4.142-1.628l55.647,1.613l-3.523,18.305l-0.769,0.32
							c-6.519,2.716-34.064,2.708-46.02,2.708C227.702,99.955,225.643,99.933,225.55,99.932z M277.756,81.522l-52.22-1.514
							c-0.722-0.028-1.426,0.25-1.95,0.767c-0.523,0.515-0.805,1.203-0.795,1.938l0.163,11.589c0.021,1.458,1.176,2.613,2.63,2.63
							c15.979,0.184,42.937-0.342,50.057-2.492L277.756,81.522z"/>
						<path style="fill:#FFFFFF;" d="M218.722,113.064c-0.031-0.217-0.061-0.434-0.097-0.648c-0.395-2.367-0.523-5.083-0.564-6.622
							c-0.256-0.604-0.302-1.243-0.302-1.79c0-3.921,6.048-6.493,7.26-6.969l1.097,2.793c-2.246,0.886-5.358,2.83-5.358,4.177
							c0,0.363,0.03,0.52,0.035,0.563h0.247c0,0.004,0,0.053,0.001,0.142c1.443,0.502,7.275,0.077,16.51-0.596l2.716-0.198
							c19.012-1.377,34.14-6.081,34.29-6.129l2.984-0.822l-5.389,19.819l-0.805,0.172c-0.173,0.037-19.733,4.034-35.476,4.034
							C221.033,120.991,219.363,117.555,218.722,113.064z M272.567,101.474c-5.363,1.447-17.627,4.388-32.082,5.435l-2.714,0.197
							c-9.555,0.697-14.133,1.031-16.621,0.665c0.077,1.297,0.209,2.803,0.434,4.152c0.039,0.237,0.074,0.476,0.108,0.716
							c0.376,2.631,0.764,5.351,14.18,5.351c13.513,0,30.229-3.143,33.787-3.85L272.567,101.474z"/>
						<path style="fill:#FFFFFF;" d="M233.051,114.911c1.559,0,3.268-0.035,5.138-0.116c12.925-0.562,32.632-4.643,33.465-4.817
							l-0.612-2.937c-0.201,0.042-20.304,4.205-32.983,4.756c-12.409,0.538-17.438-1.037-17.487-1.053l-0.942,2.848
							C219.817,113.655,223.711,114.911,233.051,114.911z"/>
						
							<rect x="220.948" y="85.048" transform="matrix(1 -0.0098 0.0098 1 -0.8323 2.4406)" style="fill:#FFFFFF;" width="57.723" height="3"/>
					</g>
				</g>
			</g>
			<g>
				<g>
					<path style="fill:#363F59;" d="M301.193,153.841l-53.778,41.671l0.563-37.447c0,0-34.913,5.631-37.729,6.194
						c-2.816,0.563-14.923-4.223-29.001,2.816s-25.059,33.224-19.428,61.098c17.738,8.728,30.69,13.233,30.69,13.233
						s-4.505,24.214-0.563,32.379c3.942,8.165,8.165,10.981,8.165,10.981s-1.971,35.195-0.282,42.797
						c1.689,7.602,8.447,16.612,8.447,16.612s101.925,7.32,139.935-2.253c11.544-53.496,16.612-84.749,16.612-84.749l70.108-24.496
						l-3.942-10.699c0,0-0.281-18.864-3.379-39.418c-3.097-20.554-30.408-41.952-68.701-30.69L301.193,153.841z"/>
					<g>
						<path style="fill:#252D3F;" d="M205.182,181.434c-9.01,24.777-12.67,59.972-12.67,59.972s-11.324-3.939-27.295-11.586
							C165.847,194.701,178.836,180.358,205.182,181.434z"/>
						<path style="fill:#252D3F;" d="M329.573,344.95c-0.208-14.117-0.824-64.6,0.622-85.806
							c1.689-24.777,16.894-59.128,16.894-59.128l17.738,57.157c0,0-5.068,31.253-16.612,84.749
							C343.045,343.224,336.688,344.212,329.573,344.95z"/>
					</g>
				</g>
				<g>
					<path style="fill:#FFFFFF;" d="M212.713,279.353c-0.589,2.358,0.59,41.85,0.59,41.85l4.126,10.02l33.598-0.589l5.305-8.252
						l-0.589-44.797c0,0-4.715-9.431-4.715-14.146c0-4.715,0.59-45.386,0.59-45.386l-5.894-8.842l-30.65,1.179l-6.484,10.02
						c0,0-0.589,39.492-0.589,42.439C207.997,265.796,213.302,276.996,212.713,279.353z M223.323,260.491l0.589-35.955l7.663,1.179
						v34.187c0,0,1.768,10.61,4.715,16.504v40.082l-7.663-0.59v-38.903C228.627,276.996,223.323,266.386,223.323,260.491z"/>
					<path style="fill:#FFFFFF;" d="M264.287,277.599c-0.609,2.438,0.609,43.265,0.609,43.265l4.266,10.359l34.734-0.609
						l5.484-8.531l-0.609-46.312c0,0-4.875-9.75-4.875-14.625c0-4.875,0.609-46.921,0.609-46.921l-6.094-9.14l-31.687,1.219
						l-6.703,10.359c0,0-0.609,40.827-0.609,43.874C259.412,263.584,264.896,275.162,264.287,277.599z M275.255,258.1l0.609-37.171
						l7.922,1.219v35.343c0,0,1.828,10.969,4.875,17.062v41.437l-7.922-0.609v-40.218C280.74,275.162,275.255,264.193,275.255,258.1
						z"/>
				</g>
			</g>
			<path style="fill:#A85164;" d="M145.773,488.897c-2.534,0-11.826-20.272-11.826-20.272l-15.204,27.03
				c0,0,0.845-11.826,3.379-22.806c0.87-3.769,6.141-22.357,14.36-44.768l35.289,18.02c-13.139,15.392-22.619,25.059-22.619,25.059
				S148.307,488.897,145.773,488.897z"/>
			<path style="fill:#6B3A64;" d="M148.479,469.968c0.66-10.767,6.341-20.384,12.456-29.4l10.834,5.533
				c-12.039,15.017-22.619,25.059-22.619,25.059s-0.002,0.037-0.005,0.096c0,0.003,0,0.008-0.001,0.012
				c-0.025,0.481-0.136,2.533-0.358,5.077C148.447,474.241,148.349,472.09,148.479,469.968z"/>
			<g>
				<g>
					<path style="fill:#A85164;" d="M375.244,277.727c0,0-11.262-24.777-52.933-36.04s-74.895,6.194-77.71,9.01
						c2.816,16.33,14.078,37.166,35.477,52.933c21.398,15.767,108.682,18.02,108.682,18.02L375.244,277.727z"/>
					<path style="fill:#6B3A64;" d="M382.001,317.146l6.054,4.484c-8.234-0.252-87.696-3.054-107.979-17.999
						c-21.399-15.767-32.661-36.603-35.477-52.933C342.02,246.756,382.001,317.146,382.001,317.146z"/>
				</g>
				<g>
					<g>
						<path style="fill:#EFB993;" d="M382.001,317.146l-17.269-59.878l65.51-23.088l24.402,123.511c0,0,3.942,23.088-25.904,19.709
							c-24.89-2.818-77.586-18.954-126.081-43.504l12.563-32.596L382.001,317.146z"/>
						<path style="fill:#A85164;" d="M254.736,282.232c3.379,5.068,3.379,5.068,3.379,5.068s-2.252-11.262-1.689-14.078
							c13.515,14.641,16.33,18.02,16.33,18.02c-1.689-13.515,2.816-15.767,2.816-15.767l6.757,18.02l32.893,7.805l-13.183,34.804
							c-9.655-4.888-18.524-12.316-27.593-17.832C274.445,318.272,256.426,302.504,254.736,282.232z"/>
					</g>
					<path style="fill:#C48C66;" d="M377.91,302.958l-13.178-45.691l65.51-23.088l1.187,6.009
						C408.967,256.488,390.419,278.181,377.91,302.958z"/>
				</g>
			</g>
		</g>
	</g>
</g>
</svg>
